<svg width="39" height="32" viewBox="0 0 39 32" fill="none" xmlns="http://www.w3.org/2000/svg">
<path d="M17.3203 2.3281L4.90427 7.46561C4.21401 7.75153 4.22098 8.73224 4.91594 9.00763L17.3837 13.9518C18.4791 14.3863 19.6991 14.3863 20.7945 13.9518L33.2625 9.00763C33.9571 8.73224 33.9644 7.75153 33.2738 7.46579L20.8582 2.3281C19.7254 1.85938 18.453 1.85938 17.3203 2.3281Z" fill="currentColor"/>
<path d="M20.1953 16.6513V29.0027C20.1953 29.59 20.7877 29.9925 21.3338 29.776L35.2267 24.3834C35.3816 24.322 35.5145 24.2154 35.6082 24.0776C35.7018 23.9397 35.7519 23.7768 35.7518 23.6102V11.2589C35.7518 10.6714 35.1595 10.2692 34.6134 10.4856L20.7205 15.8782C20.5656 15.9397 20.4327 16.0462 20.339 16.1841C20.2454 16.322 20.1953 16.4846 20.1953 16.6513Z" fill="currentColor"/>
<path d="M16.9505 17.2886L12.8274 19.2794L12.4087 19.4818L3.70512 23.6521C3.1536 23.9183 2.44922 23.5162 2.44922 22.9033V11.3107C2.44922 11.0889 2.56291 10.8975 2.71538 10.7535C2.77793 10.6912 2.8489 10.638 2.92621 10.5954C3.13402 10.4706 3.43068 10.4373 3.68291 10.537L16.8812 15.7666C17.5521 16.0327 17.6048 16.9726 16.9505 17.2886Z" fill="currentColor"/>
<path d="M16.95 17.2886L12.8268 19.2794L2.71484 10.7533C2.77741 10.6911 2.84837 10.6379 2.92567 10.5954C3.13348 10.4706 3.43014 10.4373 3.68237 10.537L16.8807 15.7666C17.5515 16.0327 17.6043 16.9726 16.95 17.2886Z" fill="currentColor"/>
</svg>
