<svg width="22" height="33" viewBox="0 0 22 33" fill="none" xmlns="http://www.w3.org/2000/svg">
<path d="M19.3 11C20.3729 10.2883 21.1885 9.25035 21.6261 8.03949C22.0638 6.82863 22.1003 5.50911 21.7304 4.27589C21.3604 3.04267 20.6035 1.96116 19.5716 1.19118C18.5397 0.421188 17.2875 0.00356004 16 0H5.99999C4.71247 0.00356004 3.46025 0.421188 2.42835 1.19118C1.39644 1.96116 0.63959 3.04267 0.269623 4.27589C-0.100343 5.50911 -0.0638002 6.82863 0.373852 8.03949C0.811505 9.25035 1.62705 10.2883 2.69999 11C1.87489 11.5473 1.19806 12.2903 0.729852 13.1627C0.261645 14.0351 0.0166159 15.0099 0.0166159 16C0.0166159 16.9901 0.261645 17.9649 0.729852 18.8373C1.19806 19.7097 1.87489 20.4527 2.69999 21C1.83247 21.5713 1.12813 22.3581 0.655896 23.2832C0.183661 24.2084 -0.0402936 25.2404 0.00594956 26.2781C0.0521927 27.3158 0.367049 28.3237 0.919707 29.2033C1.47237 30.0828 2.24389 30.8038 3.15879 31.2956C4.07369 31.7875 5.10062 32.0334 6.13908 32.0094C7.17754 31.9853 8.19197 31.692 9.08308 31.1583C9.9742 30.6245 10.7115 29.8686 11.2228 28.9644C11.7341 28.0602 12.0019 27.0387 12 26V20.5C13.1222 21.4434 14.5342 21.9729 16 22C17.2875 21.9964 18.5397 21.5788 19.5716 20.8088C20.6035 20.0388 21.3604 18.9573 21.7304 17.7241C22.1003 16.4909 22.0638 15.1714 21.6261 13.9605C21.1885 12.7497 20.3729 11.7117 19.3 11ZM12 2H16C17.0609 2 18.0783 2.42143 18.8284 3.17157C19.5786 3.92172 20 4.93913 20 6C20 7.06087 19.5786 8.07828 18.8284 8.82843C18.0783 9.57857 17.0609 10 16 10H12V2ZM1.99999 6C1.99999 4.93913 2.42142 3.92172 3.17156 3.17157C3.92171 2.42143 4.93912 2 5.99999 2H9.99999V10H5.99999C4.93912 10 3.92171 9.57857 3.17156 8.82843C2.42142 8.07828 1.99999 7.06087 1.99999 6ZM1.99999 16C1.99999 14.9391 2.42142 13.9217 3.17156 13.1716C3.92171 12.4214 4.93912 12 5.99999 12H9.99999V20H5.99999C4.93912 20 3.92171 19.5786 3.17156 18.8284C2.42142 18.0783 1.99999 17.0609 1.99999 16ZM9.99999 26C9.99999 26.7911 9.7654 27.5645 9.32587 28.2223C8.88634 28.8801 8.26163 29.3928 7.53073 29.6955C6.79982 29.9983 5.99555 30.0775 5.21963 29.9231C4.44371 29.7688 3.73097 29.3878 3.17156 28.8284C2.61215 28.269 2.23119 27.5563 2.07685 26.7804C1.92251 26.0044 2.00172 25.2002 2.30447 24.4693C2.60722 23.7384 3.11991 23.1136 3.77771 22.6741C4.43551 22.2346 5.20887 22 5.99999 22H9.99999V26ZM16 20C15.2089 20 14.4355 19.7654 13.7777 19.3259C13.1199 18.8864 12.6072 18.2616 12.3045 17.5307C12.0017 16.7998 11.9225 15.9956 12.0768 15.2196C12.2312 14.4437 12.6122 13.731 13.1716 13.1716C13.731 12.6122 14.4437 12.2312 15.2196 12.0769C15.9956 11.9225 16.7998 12.0017 17.5307 12.3045C18.2616 12.6072 18.8863 13.1199 19.3259 13.7777C19.7654 14.4355 20 15.2089 20 16C20 17.0609 19.5786 18.0783 18.8284 18.8284C18.0783 19.5786 17.0609 20 16 20Z" fill="currentColor"/>
</svg>
