<svg width="25" height="25" viewBox="0 0 25 25" fill="none" xmlns="http://www.w3.org/2000/svg">
<g clip-path="url(#clip0_1089_118)">
<path fill-rule="evenodd" clip-rule="evenodd" d="M19.16 22.8558C16.9788 22.8558 15.5687 21.8243 14.8812 20.4751L16.7937 19.3762C17.2975 20.1921 17.9512 20.7912 19.11 20.7912C20.0825 20.7912 20.7037 20.3085 20.7037 19.6426C20.7037 18.6407 19.3562 18.2492 18.405 17.845C16.71 17.1295 15.585 16.2305 15.585 14.332C15.585 12.5849 16.9275 11.2532 19.0263 11.2532C20.5188 11.2532 21.5937 11.769 22.365 13.1169L20.5362 14.2824C20.1337 13.5669 19.6975 13.284 19.0263 13.284C18.3375 13.284 17.9013 13.717 17.9013 14.2824C17.9013 14.9818 18.3375 15.2646 19.345 15.6974C21.4563 16.5951 23.0537 17.3004 23.0537 19.6093C23.0537 21.7074 21.3925 22.8558 19.16 22.8558ZM13.75 19.3429C13.75 21.7572 12.2512 23.0332 10.17 23.0332C8.28998 23.0332 7.16374 22.32 6.60999 21.08H6.59126H6.58249H6.57749L8.48873 19.7546C8.85748 20.4031 9.19 20.8632 9.995 20.8632C10.7675 20.8632 11.25 20.4752 11.25 19.3108V11.16H13.75V19.3429ZM0 24.8H25V0H0V24.8Z" fill="currentColor"/>
</g>
<defs>
<clipPath id="clip0_1089_118">
<rect width="25" height="25" fill="white"/>
</clipPath>
</defs>
</svg>
