<svg width="29" height="32" viewBox="0 0 29 32" fill="none" xmlns="http://www.w3.org/2000/svg">
<path d="M14.0657 14.1064C13.0219 14.1064 12.1719 14.9565 12.1719 16.0002C12.1719 17.044 13.0219 17.894 14.0657 17.894C15.1094 17.894 15.9594 17.044 15.9594 16.0002C15.9594 14.9565 15.1094 14.1064 14.0657 14.1064ZM14.0657 17.0768C13.4719 17.0768 12.9891 16.594 12.9891 16.0002C12.9891 15.4065 13.4719 14.9237 14.0657 14.9237C14.6594 14.9237 15.1422 15.4065 15.1422 16.0002C15.1422 16.594 14.6594 17.0768 14.0657 17.0768Z" fill="black" fill-opacity="0.2"/>
<path d="M27.6132 7.4891C26.4148 5.58128 23.3712 5.16875 19.5475 6.08128C18.2866 2.35779 16.3178 0 14.0646 0C11.8115 0 9.84259 2.35783 8.58177 6.08128C4.75828 5.16719 1.71447 5.58128 0.516058 7.4891C-0.7652 9.52821 0.40668 12.7268 3.28486 16C0.406696 19.2735 -0.7652 22.4721 0.516058 24.5109C1.31139 25.7766 2.91765 26.386 5.02532 26.386C6.09565 26.386 7.29567 26.2281 8.58317 25.9203C9.84255 29.6422 11.8113 32 14.0644 32C16.3176 32 18.2865 29.6422 19.5457 25.9203C20.8333 26.2281 22.0333 26.386 23.1036 26.386C25.2114 26.386 26.8177 25.7766 27.6128 24.5109C28.8941 22.4718 27.7222 19.2733 24.844 16C27.7222 12.7265 28.8945 9.52793 27.6132 7.4891ZM26.921 7.92347C27.9726 9.59849 26.8382 12.4315 24.2741 15.3736C23.285 14.3251 22.1256 13.2782 20.8209 12.2642C20.6241 10.2985 20.2756 8.48288 19.8022 6.88449C23.221 6.07668 25.9398 6.35937 26.921 7.92347ZM17.3225 21.186C16.2381 21.8673 15.1443 22.4736 14.0646 23.0033C12.9834 22.4736 11.8896 21.8673 10.8068 21.186C9.85055 20.5845 8.94429 19.9517 8.09428 19.3001C7.99428 18.2329 7.93959 17.1298 7.93959 16.0001C7.93959 14.8704 7.99428 13.7672 8.09428 12.7C8.94429 12.0484 9.85055 11.4141 10.8068 10.8141C11.8896 10.1328 12.9834 9.52653 14.0631 8.9984C15.1443 9.52809 16.2381 10.1328 17.3225 10.8141C18.2787 11.4156 19.185 12.0484 20.035 12.7C20.135 13.7672 20.1897 14.8704 20.1897 16.0001C20.1897 17.1298 20.135 18.2329 20.035 19.3001C19.185 19.9517 18.2787 20.586 17.3225 21.186ZM19.9132 20.4188C19.7069 22.0407 19.3897 23.5532 18.9866 24.9049C17.7257 24.5549 16.385 24.0658 15.0131 23.4471C15.9209 22.9768 16.8397 22.4549 17.7569 21.8783C18.51 21.4064 19.2288 20.9173 19.9132 20.4188ZM13.1163 23.447C11.7444 24.0658 10.4038 24.5548 9.14278 24.9048C8.73965 23.5532 8.42245 22.0407 8.2162 20.4188C8.90057 20.9172 9.61934 21.4047 10.3725 21.8781C11.2897 22.4547 12.2084 22.9767 13.1163 23.447ZM7.21139 18.6017C6.17386 17.7502 5.23948 16.8736 4.42227 16.0001C5.23948 15.1267 6.17386 14.2501 7.21139 13.3985C7.15358 14.2439 7.12232 15.111 7.12232 16.0001C7.12232 16.8892 7.15357 17.7564 7.21139 18.6017ZM8.21608 11.5812C8.42233 9.95934 8.73953 8.44528 9.14266 7.09358C10.4036 7.44358 11.7443 7.93267 13.1177 8.5514C12.2099 9.02172 11.2911 9.54517 10.3724 10.1217C9.61922 10.5936 8.90045 11.0828 8.21608 11.5812ZM15.0146 8.55308C16.3865 7.93431 17.7271 7.44526 18.9881 7.09526C19.3912 8.44684 19.7084 9.95938 19.9146 11.5813C19.2303 11.0829 18.5115 10.5954 17.7584 10.1219C16.8396 9.54537 15.9224 9.02184 15.0146 8.55308ZM20.9179 13.3983C21.9554 14.2499 22.8898 15.1265 23.707 15.9999C22.8898 16.8734 21.9554 17.75 20.9179 18.6015C20.9757 17.7562 21.0069 16.889 21.0069 15.9999C21.0069 15.1108 20.9757 14.2437 20.9179 13.3983ZM14.0646 0.816971C15.9115 0.816971 17.5974 2.96856 18.7302 6.29225C17.2552 6.70473 15.6817 7.30474 14.0646 8.07979C12.4473 7.30322 10.8739 6.70477 9.3989 6.29225C10.5317 2.96876 12.2177 0.816971 14.0646 0.816971ZM1.20799 7.92347C1.83768 6.92033 3.18145 6.44377 4.96584 6.44377C5.96429 6.44377 7.10023 6.59377 8.32681 6.88441C7.85336 8.48288 7.50491 10.3001 7.30803 12.2657C6.00333 13.2798 4.84392 14.3266 3.85486 15.3751C1.29075 12.4313 0.154853 9.59869 1.20799 7.92347ZM1.20799 24.0769C0.156413 22.4019 1.2908 19.5688 3.8549 16.6268C4.844 17.6752 6.00337 18.7221 7.30807 19.7362C7.50495 21.7019 7.8534 23.5175 8.32685 25.1159C4.90804 25.9237 2.1892 25.6394 1.20799 24.0769ZM14.0646 31.1834C12.2177 31.1834 10.5317 29.0318 9.3989 25.7081C10.8739 25.2956 12.4474 24.6956 14.0646 23.919C15.6818 24.6956 17.2568 25.294 18.7302 25.7081C17.5974 29.0316 15.9114 31.1834 14.0646 31.1834ZM26.9211 24.0769C25.9399 25.641 23.2195 25.9238 19.8022 25.116C20.2757 23.5175 20.6241 21.7019 20.821 19.7363C22.1257 18.7222 23.2851 17.6754 24.2742 16.6269C26.8383 19.5691 27.9743 22.4021 26.9211 24.0769Z" fill="black" fill-opacity="0.2"/>
</svg>
